Love or Hate Us You Can't Beat Us @ http://PublicHD . ORG
You Won't Find Every Thing But You Will Get Something

General
Unique ID : 221037328316967099614962350890217815996 (0xA64A3DAE75C98901B4E1099F496EBFBC)
Complete name : Grimm.S01E15.Island.Of.Dreams.720p.WEB-DL.DD5.1.H.264-ECI.mkv
Format : Matroska
Format version : Version 2
File size : 1.32 GiB
Duration : 43mn 14s
Overall bit rate : 4 383 Kbps
Encoded date : UTC 2012-03-31 12:22:54
Writing application : mkvmerge v5.4.0 ('Piper') built on Mar 10 2012 13:34:39
Writing library : libebml v1.2.3 + libmatroska v1.3.0

Video
ID : 1
Format : AVC
Format/Info : Advanced Video Codec
Format profile : High@L3.1
Format settings, CABAC : No
Format settings, ReFrames : 2 frames
Codec ID : V_MPEG4/ISO/AVC
Duration : 43mn 14s
Bit rate : 3 912 Kbps
Width : 1 280 pixels
Height : 720 pixels
Display aspect ratio : 16:9
Frame rate : 23.976 fps
Color space : YUV
Chroma subsampling : 4:2:0
Bit depth : 8 bits
Scan type : Progressive
Bits/(Pixel*Frame) : 0.177
Stream size : 1.18 GiB (89%)
Language : English
Default : Yes
Forced : No
Color primaries : BT.709-5, BT.1361, IEC 61966-2-4, SMPTE RP177
Transfer characteristics : BT.709-5, BT.1361
Matrix coefficients : BT.709-5, BT.1361, IEC 61966-2-4 709, SMPTE RP177

Audio
ID : 2
Format : AC-3
Format/Info : Audio Coding 3
Mode extension : CM (complete main)
Codec ID : A_AC3
Duration : 43mn 14s
Bit rate mode : Constant
Bit rate : 384 Kbps
Channel(s) : 6 channels
Channel positions : Front: L C R, Side: L R, LFE
Sampling rate : 48.0 KHz
Bit depth : 16 bits
Compression mode : Lossy
Stream size : 119 MiB (9%)
Language : English
Default : Yes
Forced : No

 
http://64.imagebam.com/download/23jBXd2kkJ__fo4aYOOrbg/18250/182499107/vlcsnap-2012-03-31-15h45m34s126.png
 
http://62.imagebam.com/download/OMUVGRKBaJzhPfArabLryw/18250/182499176/vlcsnap-2012-03-31-15h45m40s202.png